<svg t="1688663428795" class="icon" viewBox="0 0 1024 1024" version="1.1" xmlns="http://www.w3.org/2000/svg" p-id="1592" ><path d="M527.29 956.16c-18.32 0-36.7-1.13-55.1-3.4-57.46-7.08-112.14-24.89-162.51-52.92-52.16-29.03-97.38-67.8-134.41-115.24s-63.66-100.72-79.16-158.37C81.15 570.56 77.16 513.2 84.24 455.74c7.08-57.46 24.89-112.14 52.92-162.51 29.03-52.16 67.8-97.38 115.24-134.41C315.59 109.5 390.8 78.09 469.91 68c6.71-0.86 13.3 2.35 16.77 8.18a17.017 17.017 0 0 1-0.82 18.64c-22.96 31.87-40.57 67.11-52.33 104.75a368.554 368.554 0 0 0-16.77 114.57c0.97 80.85 27.85 157.37 77.75 221.29C544.39 599.34 612.1 644 690.29 664.57a368.64 368.64 0 0 0 115.21 11.54c39.37-2.27 77.83-10.79 114.32-25.33a17.01 17.01 0 0 1 18.28 3.73 17.001 17.001 0 0 1 3.86 18.25c-28.99 74.29-77.72 139.63-140.91 188.95-47.44 37.03-100.72 63.66-158.37 79.16-37.84 10.18-76.47 15.29-115.39 15.29z m-90.65-847.82c-59.18 13.26-115.04 39.62-163.3 77.29-43.83 34.21-79.65 75.98-106.45 124.14-25.9 46.53-42.35 97.04-48.89 150.13-6.54 53.09-2.85 106.08 10.97 157.5 14.31 53.22 38.91 102.44 73.12 146.27s75.98 79.65 124.14 106.45c46.52 25.89 97.03 42.34 150.13 48.88 53.09 6.54 106.08 2.85 157.5-10.97 53.22-14.31 102.44-38.91 146.27-73.12 48.27-37.67 87.39-85.46 114.63-139.65-28.37 8.14-57.6 13.11-87.3 14.82-42.4 2.45-84.73-1.8-125.82-12.61-41.55-10.93-80.79-28.31-116.65-51.66-37.09-24.15-69.82-54.25-97.3-89.45s-48.72-74.27-63.15-116.11c-13.95-40.45-21.28-82.74-21.79-125.7a402.56 402.56 0 0 1 18.32-125.12 398.958 398.958 0 0 1 35.57-81.09z" p-id="1593" fill="#fff"></path></svg>