<svg t="1688708420500" class="icon" viewBox="0 0 1024 1024" version="1.1" xmlns="http://www.w3.org/2000/svg" p-id="3942" ><path d="M298.368 512c0 117.802667 95.829333 213.632 213.632 213.632s213.632-95.829333 213.632-213.632S629.802667 298.368 512 298.368 298.368 394.197333 298.368 512zM512 383.701333c70.741333 0 128.298667 57.557333 128.298667 128.298667S582.741333 640.298667 512 640.298667 383.701333 582.741333 383.701333 512 441.258667 383.701333 512 383.701333zM469.248 810.666667h85.333333v128h-85.333333z m0-725.333334h85.333333v128h-85.333333z m-384 384h128v85.333334h-128z m725.333333 0h128v85.333334h-128zM180.010667 783.488l90.453333-90.538667 60.373333 60.330667-90.453333 90.538667zM692.906667 270.677333l90.538666-90.538666 60.330667 60.330666-90.538667 90.538667zM270.592 331.050667L180.053333 240.512l60.373334-60.330667 90.453333 90.538667zM843.776 783.530667l-60.330667 60.330666-90.538666-90.538666 60.330666-60.330667z" p-id="3943" fill="#fff"></path></svg>